<svg width="271.5700119018555" viewBox="0 0 369.66666666666663 83.33066313080991"  class="p-0 text-left"><g transform="matrix(0.925896257008999,0,0,0.925896257008999,-4.259123135442787,-3.6109954906354442)" fill="#3dd2cc"><path xmlns="http://www.w3.org/2000/svg" d="M87.5,24.3L87.5,24.3C79.3,11.5,65.2,3.9,49.9,3.9c-8.7,0-17.2,2.5-24.6,7.3c-13.2,8.6-20.7,23-20.7,37.9  c0,5.8,1.1,11.8,3.5,17.4c0.3,0.7,1,1.2,1.8,1.2c0.3,0,0.5-0.1,0.8-0.2c0.7-0.3,1.2-1.1,1.2-1.8c0-0.2,0-0.5-0.1-0.7  c-2.2-5.2-3.2-10.6-3.2-15.9c0-13.6,6.8-26.8,18.9-34.7c6.7-4.3,14.4-6.7,22.4-6.7v0l0,0c0,0,0,0,0,0h0l0,0l0,0  c14,0,26.8,7,34.4,18.6c4.4,6.8,6.5,14.5,6.5,22.1h0l0,0v0v0v0v0l0,0v0c0,13.5-6.7,26.8-18.8,34.7c-6.7,4.3-14.4,6.7-22.3,6.7l0,0  h-0.2c0,0,0,0,0,0h0c-10.7,0-21-4.3-28.6-11.8l-1.5-1.5l2.7,0.3l11.8-2.8l36.6-36.5c5.2-4.6-7.4-13.7-9.8-14.6l0,0l0,0  c-1.2,0-2.4,0.5-3.3,1.4L20.8,60.9L17,76.5l0.2,0L17,76.7l0,0l-0.2,0.2l0,0c-0.4,0.4-0.6,0.8-0.6,1.4l0,0.1c0,0.5,0.2,0.9,0.5,1.3  C25,88.6,37,93.9,49.4,93.9v0h0c8.7,0,17.2-2.5,24.6-7.3c10.1-6.6,17-16.6,19.6-28.4c0.7-3.2,1-6.5,1-9.7  C94.7,39.9,92.2,31.6,87.5,24.3z M59.5,26.4l0.2-0.1l0.3-0.1l0.5-0.2l0.5,0.2l0.5,0.2l6.7,6.8l0.3,0.4l0.2,0.5v0.3v0.3l-0.1,0.2  l-0.2,0.5L62.6,41l-8.9-8.9L59.5,26.4z M25,60.9c5.2-5.2,20.8-20.9,26.1-26.2l0.9-0.9l8.9,8.9l-27,27L33,70.7l-4.5-4.5l-4.4-4.4  L25,60.9z M23.1,64.3l7.5,7.5l-7.9,1.9l-2,0.5L23.1,64.3z" xmlns="http://www.w3.org/2000/svg"></path></g><g transform="matrix(2.4609326796293147,0,0,2.4609326796293147,100.8343813072231,10.449242395119178)" fill="#122d42"><path d="M8.32 8.12 l0 11.88 l-3.18 0 l0 -11.88 l-4.26 0 l0 -2.74 l11.68 0 l0 2.74 l-4.24 0 z M27.64 20 l-3.14 0 l0 -5.68 l-6.86 0 l0 5.68 l-3.14 0 l0 -14.62 l3.14 0 l0 6.2 l6.86 0 l0 -6.2 l3.14 0 l0 14.62 z M34.080000000000005 11.38 l7 0 l0 2.76 l-7 0 l0 3.12 l7.92 0 l0 2.74 l-11.08 0 l0 -14.62 l11.08 0 l0 2.74 l-7.92 0 l0 3.26 z M61.25 11.22 q-0.51 0.8 -1.33 1.14 q1 0.34 1.72 1.3 t0.72 2.1 q0 2.26 -1.44 3.25 t-3.68 0.99 l-6.32 0 l0 -14.62 l6.08 0 q4.76 0 4.76 4.06 q0 0.98 -0.51 1.78 z M57.06 11.18 q0.78 0 1.15 -0.48 t0.37 -1.14 q0 -0.58 -0.44 -1.01 t-1.06 -0.43 l-2.98 0 l0 3.06 l2.96 0 z M58.68000000000001 16.78 q0.52 -0.48 0.52 -1.18 t-0.52 -1.18 t-1.5 -0.48 l-3.08 0 l0 3.32 l3.14 0 q0.92 0 1.44 -0.48 z M75.82000000000001 20 l-10.84 0 l0 -14.62 l3.18 0 l0 11.88 l7.66 0 l0 2.74 z M80.08 19.26 q-1.8 -1.02 -2.86 -2.77 t-1.06 -3.81 q0 -2.04 1.06 -3.79 t2.86 -2.77 t3.94 -1.02 t3.96 1.02 t2.88 2.77 t1.06 3.79 q0 2.06 -1.06 3.81 t-2.88 2.77 t-3.96 1.02 t-3.94 -1.02 z M81.66 8.63 q-1.08 0.65 -1.72 1.73 t-0.64 2.32 t0.64 2.33 t1.72 1.75 t2.36 0.66 t2.37 -0.66 t1.72 -1.75 t0.63 -2.33 t-0.63 -2.32 t-1.72 -1.73 t-2.37 -0.65 t-2.36 0.65 z M109.24 13.04 q0 0.24 -0.04 0.84 q-0.16 1.84 -1.23 3.3 t-2.76 2.28 t-3.65 0.82 q-2.14 0 -3.95 -1.02 t-2.87 -2.76 t-1.06 -3.8 q0 -2.04 1.06 -3.79 t2.87 -2.77 t3.95 -1.02 q2.02 0 3.77 0.95 t2.85 2.57 l-2.72 1.58 q-0.72 -0.98 -1.74 -1.6 t-2.16 -0.62 q-1.28 0 -2.37 0.65 t-1.73 1.73 t-0.64 2.32 t0.64 2.33 t1.73 1.74 t2.37 0.65 q0.92 0 1.82 -0.37 t1.56 -1.01 t0.88 -1.4 l-5.46 0 l0 -2.78 l8.84 0 q0.04 0.8 0.04 1.18 z"></path></g></svg>